<mxfile host="Electron" agent="Mozilla/5.0 (Windows NT 10.0; Win64; x64) AppleWebKit/537.36 (KHTML, like Gecko) draw.io/26.0.4 Chrome/128.0.6613.186 Electron/32.2.5 Safari/537.36" version="26.0.4">
  <diagram name="Page-1" id="_HCvl0YmeWPvtZPQ_Uj9">
    <mxGraphModel dx="2074" dy="1197" grid="1" gridSize="10" guides="1" tooltips="1" connect="1" arrows="1" fold="1" page="1" pageScale="1" pageWidth="1169" pageHeight="827" math="0" shadow="0">
      <root>
        <mxCell id="0" />
        <mxCell id="1" parent="0" />
        <UserObject label="&lt;div&gt;&lt;b&gt;LocalSystem&lt;/b&gt;&lt;/div&gt;&lt;div&gt;User@beckhoff.com&lt;/div&gt;" link="&#xa;&lt;span style=&quot;color: rgb(0, 0, 0); font-family: Helvetica; font-size: 9px; font-style: normal; font-variant-ligatures: normal; font-variant-caps: normal; font-weight: 400; letter-spacing: normal; orphans: 2; text-align: center; text-indent: 0px; text-transform: none; widows: 2; word-spacing: 0px; -webkit-text-stroke-width: 0px; white-space: normal; background-color: rgb(251, 251, 251); text-decoration-thickness: initial; text-decoration-style: initial; text-decoration-color: initial; display: inline !important; float: none;&quot;&gt;&quot;ba-0f8cfe2680560cffb.eu-central-1.demo.beckhoff-cloud-instances.com&lt;/span&gt;&#xa;&#xa;" id="CidttkHia0guosV8DIlP-8">
          <mxCell style="rounded=0;whiteSpace=wrap;html=1;align=left;verticalAlign=top;" vertex="1" parent="1">
            <mxGeometry x="40" y="160" width="350" height="400" as="geometry" />
          </mxCell>
        </UserObject>
        <mxCell id="8kB0kHyKgQLEjqnZo5WQ-7" value="&lt;b&gt;AdsOverMqttApp&lt;/b&gt;&lt;div&gt;&lt;br&gt;&lt;/div&gt;&lt;div&gt;NetId: 42.42.42.42.1.1&lt;/div&gt;&lt;div&gt;&lt;br&gt;&lt;/div&gt;&lt;div&gt;&lt;br&gt;&lt;/div&gt;&lt;div&gt;&lt;div style=&quot;text-align: left;&quot;&gt;&lt;font style=&quot;font-size: 8px;&quot;&gt;&quot;NoRetain&quot;: false,&lt;/font&gt;&lt;/div&gt;&lt;div style=&quot;text-align: left;&quot;&gt;&lt;font style=&quot;font-size: 8px;&quot;&gt;&quot;Unidirectional&quot;: false,&lt;/font&gt;&lt;/div&gt;&lt;div style=&quot;text-align: left;&quot;&gt;&lt;font style=&quot;font-size: 8px;&quot;&gt;&quot;Port&quot;: 8883,&lt;/font&gt;&lt;/div&gt;&lt;div style=&quot;text-align: left;&quot;&gt;&lt;font style=&quot;font-size: 8px;&quot;&gt;&quot;Address&quot;: &quot;ba-0f8cfe2680560cffb.eu-central-1.demo.beckhoff-cloud-instances.com&quot;,&lt;/font&gt;&lt;/div&gt;&lt;div style=&quot;text-align: left;&quot;&gt;&lt;font style=&quot;font-size: 8px;&quot;&gt;&quot;Topic&quot;: &quot;VirtualAmsNetwork1&quot;,&lt;/font&gt;&lt;/div&gt;&lt;div style=&quot;text-align: left;&quot;&gt;&lt;font style=&quot;font-size: 8px;&quot;&gt;&quot;Tls&quot;: {&lt;/font&gt;&lt;/div&gt;&lt;div style=&quot;text-align: left;&quot;&gt;&lt;font style=&quot;font-size: 8px;&quot;&gt;&amp;nbsp; &amp;nbsp; &amp;nbsp; &amp;nbsp; &amp;nbsp; &quot;IgnoreCn&quot;: false,&lt;/font&gt;&lt;/div&gt;&lt;div style=&quot;text-align: left;&quot;&gt;&lt;font style=&quot;font-size: 8px;&quot;&gt;&amp;nbsp; &amp;nbsp; &amp;nbsp; &amp;nbsp; &amp;nbsp; &quot;CA&quot;: &quot;[PATH}\\BA-0f8cfe2680560cffb\\intermediateCA.pem&quot;,&lt;/font&gt;&lt;/div&gt;&lt;div style=&quot;text-align: left;&quot;&gt;&lt;font style=&quot;font-size: 8px;&quot;&gt;&amp;nbsp; &amp;nbsp; &amp;nbsp; &amp;nbsp; &amp;nbsp; &quot;CERT&quot;: &quot;[PATH]\\BA-0f8cfe2680560cffb\\MyDevice.pem&quot;,&lt;/font&gt;&lt;/div&gt;&lt;div style=&quot;text-align: left;&quot;&gt;&lt;font style=&quot;font-size: 8px;&quot;&gt;&amp;nbsp; &amp;nbsp; &amp;nbsp; &amp;nbsp; &amp;nbsp; &quot;KEY&quot;: &quot;[PATH]\\BA-0f8cfe2680560cffb\\MyDevice.key&quot;,&lt;/font&gt;&lt;/div&gt;&lt;div style=&quot;text-align: left;&quot;&gt;&lt;font style=&quot;font-size: 8px;&quot;&gt;&amp;nbsp; &amp;nbsp; &amp;nbsp; &amp;nbsp; &amp;nbsp; &quot;Version&quot;: &quot;tlsv1.2&quot;&lt;/font&gt;&lt;/div&gt;&lt;/div&gt;" style="rounded=0;whiteSpace=wrap;html=1;" parent="1" vertex="1">
          <mxGeometry x="65" y="205" width="300" height="310" as="geometry" />
        </mxCell>
        <UserObject label="&lt;br&gt;&lt;span style=&quot;color: rgb(0, 0, 0); font-family: Helvetica; font-style: normal; font-variant-ligatures: normal; font-variant-caps: normal; letter-spacing: normal; orphans: 2; text-align: center; text-indent: 0px; text-transform: none; widows: 2; word-spacing: 0px; -webkit-text-stroke-width: 0px; white-space: normal; background-color: rgb(251, 251, 251); text-decoration-thickness: initial; text-decoration-style: initial; text-decoration-color: initial; float: none; display: inline !important;&quot;&gt;&lt;font style=&quot;&quot;&gt;&lt;b&gt;TwinCAT Cloud Instance&lt;/b&gt;&lt;/font&gt;&lt;/span&gt;&lt;div&gt;&lt;span style=&quot;color: rgb(0, 0, 0); font-family: Helvetica; font-size: 9px; font-style: normal; font-variant-ligatures: normal; font-variant-caps: normal; font-weight: 400; letter-spacing: normal; orphans: 2; text-align: center; text-indent: 0px; text-transform: none; widows: 2; word-spacing: 0px; -webkit-text-stroke-width: 0px; white-space: normal; background-color: rgb(251, 251, 251); text-decoration-thickness: initial; text-decoration-style: initial; text-decoration-color: initial; float: none; display: inline !important;&quot;&gt;&quot;ba-0f8cfe2680560cffb.eu-central-1.demo.beckhoff-cloud-instances.com&lt;/span&gt;&lt;br&gt;&lt;br&gt;&lt;/div&gt;" link="&#xa;&lt;span style=&quot;color: rgb(0, 0, 0); font-family: Helvetica; font-size: 9px; font-style: normal; font-variant-ligatures: normal; font-variant-caps: normal; font-weight: 400; letter-spacing: normal; orphans: 2; text-align: center; text-indent: 0px; text-transform: none; widows: 2; word-spacing: 0px; -webkit-text-stroke-width: 0px; white-space: normal; background-color: rgb(251, 251, 251); text-decoration-thickness: initial; text-decoration-style: initial; text-decoration-color: initial; display: inline !important; float: none;&quot;&gt;&quot;ba-0f8cfe2680560cffb.eu-central-1.demo.beckhoff-cloud-instances.com&lt;/span&gt;&#xa;&#xa;" id="CidttkHia0guosV8DIlP-5">
          <mxCell style="rounded=0;whiteSpace=wrap;html=1;align=left;verticalAlign=top;" vertex="1" parent="1">
            <mxGeometry x="710" y="160" width="390" height="400" as="geometry" />
          </mxCell>
        </UserObject>
        <mxCell id="8kB0kHyKgQLEjqnZo5WQ-18" value="Internet" style="ellipse;shape=cloud;whiteSpace=wrap;html=1;" parent="1" vertex="1">
          <mxGeometry x="510" y="250" width="120" height="80" as="geometry" />
        </mxCell>
        <mxCell id="CidttkHia0guosV8DIlP-1" value="&lt;div&gt;&lt;font&gt;&lt;b&gt;MqttBroker&lt;/b&gt;&lt;/font&gt;&lt;/div&gt;&lt;div&gt;&lt;font&gt;&lt;br&gt;&lt;/font&gt;&lt;/div&gt;&lt;div&gt;&lt;font style=&quot;font-size: 9px;&quot;&gt;&lt;div style=&quot;&quot;&gt;NoRetain: false,&lt;/div&gt;&lt;div style=&quot;&quot;&gt;Unidirectional: false,&lt;/div&gt;&lt;div style=&quot;&quot;&gt;Port&quot;: 8883,&lt;/div&gt;&lt;div style=&quot;&quot;&gt;Address&quot;: &quot;ba-0f8cfe2680560cffb.eu-central-1.demo.beckhoff-cloud-instances.com,&lt;/div&gt;&lt;div style=&quot;&quot;&gt;Topic: VirtualAmsNetwork1,&lt;/div&gt;&lt;/font&gt;&lt;/div&gt;&lt;div&gt;&lt;div style=&quot;background-color: rgb(31, 31, 31); font-family: &amp;quot;Cascadia Code PL&amp;quot;, Consolas, &amp;quot;Courier New&amp;quot;, monospace, Consolas, &amp;quot;Courier New&amp;quot;, monospace; font-size: 14px; line-height: 19px; white-space: pre; color: rgb(204, 204, 204);&quot;&gt;&lt;div style=&quot;color: light-dark(rgb(204, 204, 204), rgb(204, 204, 204));&quot;&gt;&lt;/div&gt;&lt;/div&gt;&lt;/div&gt;" style="rounded=0;whiteSpace=wrap;html=1;" vertex="1" parent="1">
          <mxGeometry x="730" y="230" width="350" height="120" as="geometry" />
        </mxCell>
        <mxCell id="CidttkHia0guosV8DIlP-2" value="&lt;div&gt;&lt;b&gt;TwinCAT Router&lt;/b&gt;&lt;/div&gt;&lt;div&gt;&lt;br&gt;&lt;/div&gt;&lt;div&gt;NetId:&amp;nbsp;3.79.104.236.1.1&lt;/div&gt;&lt;div style=&quot;text-align: left;&quot;&gt;&lt;br&gt;&lt;/div&gt;&lt;div&gt;&lt;div style=&quot;text-align: left;&quot;&gt;&lt;span style=&quot;background-color: transparent; color: light-dark(rgb(0, 0, 0), rgb(255, 255, 255));&quot;&gt;&amp;nbsp; &amp;nbsp; &amp;lt;Mqtt NoRetain=&quot;false&quot; Unidirectional=&quot;false&quot;&amp;gt;&lt;/span&gt;&lt;br&gt;&lt;/div&gt;&lt;div style=&quot;text-align: left;&quot;&gt;&amp;nbsp; &amp;nbsp; &amp;nbsp; &amp;lt;Address Port=&quot;1883&quot;&amp;gt;127.0.0.1&amp;lt;/Address&amp;gt;&lt;/div&gt;&lt;div style=&quot;text-align: left;&quot;&gt;&amp;nbsp; &amp;nbsp; &amp;nbsp; &amp;lt;Topic&amp;gt;VirtualAmsNetwork1&amp;lt;/Topic&amp;gt;&lt;/div&gt;&lt;div style=&quot;text-align: left;&quot;&gt;&amp;nbsp; &amp;nbsp; &amp;lt;/Mqtt&amp;gt;&lt;/div&gt;&lt;div style=&quot;text-align: left;&quot;&gt;&lt;br&gt;&lt;/div&gt;&lt;/div&gt;" style="rounded=0;whiteSpace=wrap;html=1;" vertex="1" parent="1">
          <mxGeometry x="745" y="410" width="320" height="130" as="geometry" />
        </mxCell>
        <mxCell id="CidttkHia0guosV8DIlP-6" value="AdsOverMqtt" style="endArrow=classic;startArrow=classic;html=1;rounded=0;entryX=0.16;entryY=0.55;entryDx=0;entryDy=0;entryPerimeter=0;" edge="1" parent="1" target="8kB0kHyKgQLEjqnZo5WQ-18">
          <mxGeometry width="50" height="50" relative="1" as="geometry">
            <mxPoint x="367" y="300" as="sourcePoint" />
            <mxPoint x="350" y="490" as="targetPoint" />
          </mxGeometry>
        </mxCell>
        <mxCell id="CidttkHia0guosV8DIlP-7" value="AdsOverMqtt" style="endArrow=classic;startArrow=classic;html=1;rounded=0;entryX=0.875;entryY=0.5;entryDx=0;entryDy=0;entryPerimeter=0;exitX=0;exitY=0.5;exitDx=0;exitDy=0;" edge="1" parent="1" source="CidttkHia0guosV8DIlP-1" target="8kB0kHyKgQLEjqnZo5WQ-18">
          <mxGeometry width="50" height="50" relative="1" as="geometry">
            <mxPoint x="360" y="400" as="sourcePoint" />
            <mxPoint x="429" y="389" as="targetPoint" />
          </mxGeometry>
        </mxCell>
        <mxCell id="CidttkHia0guosV8DIlP-9" value="AdsOverMqtt" style="endArrow=classic;startArrow=classic;html=1;rounded=0;" edge="1" parent="1" source="CidttkHia0guosV8DIlP-2" target="CidttkHia0guosV8DIlP-1">
          <mxGeometry width="50" height="50" relative="1" as="geometry">
            <mxPoint x="820" y="350" as="sourcePoint" />
            <mxPoint x="870" y="300" as="targetPoint" />
          </mxGeometry>
        </mxCell>
      </root>
    </mxGraphModel>
  </diagram>
</mxfile>
